<svg viewBox="0 0 607.15 287.13" xmlns="http://www.w3.org/2000/svg"><path d="m199.52 78.65h31.95v38.61h-31.95z" fill="#f39400"/><path d="m199.52 126.94h31.95v159.98h-31.95z" fill="#f39400"/><path d="m658.21 555a47.85 47.85 0 0 1 -26.8 13.38 48.76 48.76 0 0 1 -29-4.34l89.59-86.51-11.15-10.77a79.27 79.27 0 0 0 -26.81-17.2 83.49 83.49 0 0 0 -60.79 0 79 79 0 0 0 -26.79 17.2 74.36 74.36 0 0 0 -17.63 25.71 77.52 77.52 0 0 0 -5.75 29.18 78.77 78.77 0 0 0 5.78 29.35 71.68 71.68 0 0 0 10.28 17.73h-34.53a50.16 50.16 0 0 1 -19.08-3.65 48.29 48.29 0 0 1 -15.63-10.08 46.47 46.47 0 0 1 -10.44-15.12 45.56 45.56 0 0 1 -3.78-18.41v-16.92h59v-30.92h-59v-95h-32v142.86a74 74 0 0 0 6.32 30.23 78.59 78.59 0 0 0 17.45 25 82 82 0 0 0 57.2 22.93h93.87c1.72.1 3.45.17 5.19.17a82.51 82.51 0 0 0 30.94-5.9 80.8 80.8 0 0 0 26.26-17l11.09-10.8-22.66-21.89zm-69.06-66.7a46.87 46.87 0 0 1 26.8-13.2 49.72 49.72 0 0 1 29 4.52q-5.05 4.87-14.21 13.55t-19.1 18.23q-9.92 9.55-18.71 18.06t-13.14 12.68a44 44 0 0 1 -5-20.5q-.03-19.44 14.36-33.34z" fill="#622181" transform="translate(-196.57 -356.43)"/><path d="m363.43 63.58 44.9-42.1 22.64 21.37-44.89 42.1z" fill="#f39400"/><path d="m139.94 243.35v-35.69h4.78v31.94h19.33v3.75z" fill="#e8511e"/><g transform="translate(-196.57 -356.43)"><path d="m363.66 591.62q0-8.07 11-8.07a43.85 43.85 0 0 1 7.08.5v-2.47q0-4.27-7.32-4.27a31.43 31.43 0 0 0 -8.57 1.25v-3.74a31.21 31.21 0 0 1 8.57-1.25q12.1 0 12.1 8.39v17.81h-2.42l-1.91-1.85a17.69 17.69 0 0 1 -8.32 1.85q-10.21 0-10.21-8.15m11-4.32q-6.24 0-6.24 4.24c0 3 1.81 4.49 5.43 4.49a13.56 13.56 0 0 0 7.88-2v-6.23a41.88 41.88 0 0 0 -7.08-.5" fill="#e8511e"/><path d="m226.4 385.69a100.9 100.9 0 0 1 34.2-21.94 106.46 106.46 0 0 1 77.56 0 101.07 101.07 0 0 1 34.2 21.94l14.23 13.74-28.45 27.93-14.69-13.74a61.39 61.39 0 0 0 -20.66-13.3 63.9 63.9 0 0 0 -46.82 0 61.12 61.12 0 0 0 -20.65 13.3 54.55 54.55 0 0 0 -13.77 19.5 58.62 58.62 0 0 0 13.77 65.17q18.36 17.71 44.06 17.71a65.6 65.6 0 0 0 23.87-4.43 56.73 56.73 0 0 0 20.2-13.3l14.69-13.75 28.45 27.93-14.23 13.74a101.07 101.07 0 0 1 -34.2 21.94 106.46 106.46 0 0 1 -77.56 0 100.9 100.9 0 0 1 -34.2-21.94 94.59 94.59 0 0 1 -22.49-32.81 99.21 99.21 0 0 1 0-74.92 94.64 94.64 0 0 1 22.49-32.81" fill="#bd0a26"/><g fill="#622181"><path d="m464.26 642.5a23.07 23.07 0 0 1 -7.14 1.07q-13.4 0-13.4-13.31 0-12.59 13.4-12.59a23 23 0 0 1 7.14 1.07v2.86a19 19 0 0 0 -6.79-1.25q-10.45 0-10.45 9.91 0 10.63 10.45 10.63a19 19 0 0 0 6.79-1.25z"/><path d="m468.46 630.65q0-13 12.82-13 12.63 0 12.63 13t-12.63 12.91q-12.82.01-12.82-12.91zm12.82 10.23q9.15 0 9.15-10.34t-9.15-10.2q-9.34 0-9.34 10.2t9.34 10.35z"/><path d="m498.37 643.39v-25.54h3.3l15.63 20.4v-20.4h3.13v25.54h-3.3l-15.63-20.39v20.4z"/><path d="m545.44 642.39a18.55 18.55 0 0 1 -6.66 1.18q-13.88 0-13.88-13.31 0-12.59 13.4-12.59a23 23 0 0 1 7.14 1.07v2.86a19 19 0 0 0 -6.79-1.25q-10.45 0-10.45 9.91 0 10.63 10.29 10.63a17.57 17.57 0 0 0 3.64-.43v-8.68h3.3z"/><path d="m550.53 643.39v-25.54h10.9q7.29 0 7.29 6.13 0 5-7.13 7.38l8.77 12h-4.36l-8.13-11.48v-2.16q7.32-1.16 7.32-5.63 0-3.54-4.07-3.54h-7.29v22.81z"/><path d="m590.18 617.85v2.68h-13.4v8.57h12.77v2.68h-12.77v8.93h13.66v2.68h-17v-25.54zm-11.59-7.29v2.68l7.14 2.68v-2.68z"/><path d="m595.72 642.5v-3a25.72 25.72 0 0 0 8.68 1.43q6.59 0 6.59-4.82 0-4.11-4.86-4.11h-3.64q-8 0-8-7 0-7.32 10.27-7.32a30.79 30.79 0 0 1 8.31 1.07v3a23.67 23.67 0 0 0 -8.31-1.43q-7 0-7 4.64 0 4.11 4.71 4.11h3.64q8.16 0 8.16 7 0 7.5-9.9 7.5a33.67 33.67 0 0 1 -8.65-1.07z"/><path d="m662.41 643.39v-25.54h3.3l15.63 20.4v-20.4h3.13v25.54h-3.3l-15.64-20.39v20.4z"/><path d="m687.59 643.39 10.84-25.54h3.66l10.91 25.54h-3.48l-3.39-8h-8.54l.91-2.68h6.38l-4.72-11.4-9.16 22.08z"/><path d="m716.12 643.39v-25.54h3.3l15.63 20.4v-20.4h3.13v25.54h-3.3l-15.64-20.39v20.4z"/><path d="m760.23 617.85v2.68h-8v22.86h-3.3v-22.86h-8v-2.68z"/><path d="m779.61 617.85v2.68h-13.4v8.57h12.79v2.68h-12.78v8.93h13.66v2.68h-17v-25.54z"/><path d="m785.15 642.5v-3a25.72 25.72 0 0 0 8.68 1.43q6.59 0 6.59-4.82 0-4.11-4.86-4.11h-3.64q-8 0-8-7 0-7.32 10.27-7.32a30.79 30.79 0 0 1 8.31 1.07v3a23.67 23.67 0 0 0 -8.31-1.43q-7 0-7 4.64 0 4.11 4.71 4.11h3.64q8.16 0 8.16 7 0 7.5-9.9 7.5a33.67 33.67 0 0 1 -8.65-1.07z"/></g></g><path d="m452.6 261.41h4.73l-27.19 25.55h-4.73z" fill="#622181"/></svg>