<?xml version="1.0" encoding="utf-8"?>
<!-- Generator: Adobe Illustrator 26.5.0, SVG Export Plug-In . SVG Version: 6.00 Build 0)  -->
<svg version="1.1" id="Calque_1" xmlns="http://www.w3.org/2000/svg" xmlns:xlink="http://www.w3.org/1999/xlink" x="0px" y="0px"
	 viewBox="0 0 617.5 287.1" style="enable-background:new 0 0 617.5 287.1;" xml:space="preserve">
<style type="text/css">
	.st0{fill:#EB5E57;}
</style>
<g transform="translate(0.000000,607.000000) scale(0.100000,-0.100000)">
	<path class="st0" d="M3355.6,6063.1c-43.2-3.3-84-6.2-91.1-6.6l-13.3-0.5v-102v-102H3236c-8.5,0-27.1-1.4-40.3-2.8l-25.2-3.3v-97.3
		v-97.3l40.3,3.3l40.3,3.3v-240.6v-240.6l29.9,2.8c16.1,1.9,72.6,5.7,125.8,8.5l95.9,6.2v240.2v240.6l57.4,3.3
		c31.8,1.9,58.4,2.4,59.3,1.9c0.5-0.9-3.3-16.6-8.5-34.6c-13.8-45.6-14.7-160.4-1.9-206c15.2-55.1,38.4-94.5,80.7-135.7
		c42.7-42.2,83.1-65.5,145.2-83.1c45.6-13.3,162.8-18.5,217.4-9.5c105.8,17.1,203.6,67.4,255.8,132.4c19.5,24.7,48.4,78.3,56,103.9
		c3.8,12.8,6.6,12.8-125.8,3.3c-53.6-3.8-100.6-7.1-104.4-7.1c-3.8,0-11.9-7.6-18-17.1c-32.7-50.3-133.4-69.8-201.2-38.4
		c-40.3,18-65.5,59.3-65.5,105.8v20.4l20.4,2.4c10.9,1.4,124.8,9.5,252.5,17.1c128.1,8.1,237.8,15.7,244,17.1
		c11.4,2.4,11.4,2.4,8.5,55.5c-3.3,63.6-11.4,97.3-37,149c-54.6,112.5-159,168.5-312.8,168c-155.2,0-281-57.4-359.3-163.7
		l-20.4-27.5v74.5v74.5l-12.8-2.8c-7.6-1.4-39.4-3.8-71.2-5.7l-58.4-2.8v100.1v100.1l-34.2-0.5
		C3449.6,6069.3,3398.8,6066,3355.6,6063.1z M4062.8,5763.6c30.4-9,72.6-48.4,78.3-72.6c1.9-8.5,2.4-16.1,1.4-17.1
		c-1.4-1.9-267.2-21.4-287.2-21.4c-10.4,0,7.6,40.8,28,64.1C3925.2,5763.6,3997.8,5783.1,4062.8,5763.6z"/>
	<path class="st0" d="M4672.2,5968.2c-102-18-188.4-68.3-230.2-134.3c-41.3-65-44.1-165.2-6.6-219.3c27.5-39.9,67.4-57,171.8-73.6
		c40.3-6.6,78.3-14.2,84-17.6c34.6-17.6,42.2-48.9,17.6-73.6c-37-37-130-32.7-228.8,10l-37.5,16.1l-43.2-83.5
		c-49.8-95.9-50.8-86.4,10-109.6c66.4-25.6,125.3-34.6,208.8-32.3c97.3,2.8,162.8,20.4,231.1,60.8c108.2,65,155.2,202.7,102,300.4
		c-31.3,57.4-81.2,79.7-228.3,102c-39.4,6.2-58.9,15.7-66.4,32.7c-16.1,34.6,29,67.4,92.6,67.4c26.6,0,85.9-10.4,107.3-18.5
		l12.8-4.7l40.3,76.9l40.3,76.9l-14.2,6.2C4885.8,5971.5,4745.3,5981,4672.2,5968.2z"/>
	<path class="st0" d="M2845.4,5846.7c-78.3-11.4-139.5-47.9-186.5-110.6l-10.4-13.8v45.6v45.6l-15.2-1.9c-8.5-1.4-53.2-4.3-98.7-7.1
		c-45.6-2.8-95.4-6.2-110.1-7.6l-27.5-2.8v-337v-337.5l29.9,2.8c16.1,1.4,71.2,5.7,122.5,8.5l93,5.7l2.8,74
		c1.9,40.8,3.3,131,3.3,200.3c0,140.5,2.8,159.5,29.9,195.1c21.8,28.5,53.6,43.7,96.8,46c46.5,1.9,65-1.9,84-19
		c32.3-28,33.2-34.2,35.1-269.6l1.4-210.7l29.4,2.8c16.1,1.4,71.7,5.7,123.4,8.5l93.5,5.7v235.4c0,258.2-1.4,274.3-28,331.3
		C3072.7,5824.9,2973.5,5865.2,2845.4,5846.7z"/>
	<path class="st0" d="M2183.3,5780.7c-61.2-4.7-112-8.5-112.5-9c-0.9,0-1.4-14.2-1.4-31.3c0-17.1-1.4-30.9-2.8-30.9
		c-1.9,0-10.4,6.6-19.5,14.2c-37.5,33.2-109.6,57-172.8,57c-211.2,0-379.7-169.4-379.7-382.1c0-92.6,28-169.4,85-230.7
		c62.7-67.9,132.9-101.1,225.9-106.8c93-6.2,200.8,34.6,242.5,92.1c8.1,10.4,15.7,19.5,18,19.5c1.9,0.5,3.3-16.6,3.3-37.5v-38
		l34.6,2.8c18.5,1.4,73.1,5.2,120.6,8.5c47.9,3.3,88.3,7.1,89.7,9c1.4,1.4,4.3,153.3,5.7,337.5l2.4,335.1l-13.8-0.5
		C2301,5789.3,2244.5,5785,2183.3,5780.7z M2001.5,5561.9c50.3-24.2,74-65,74-127.7c-0.5-98.2-68.8-161.4-174.2-161.4
		c-53.6,0-84.5,11.4-113,41.8c-29,30.9-38.9,61.7-36.1,109.6c3.8,61.7,33.7,107.3,86.9,133.8
		C1893.3,5584.7,1950.7,5586.1,2001.5,5561.9z"/>
	<path class="st0" d="M1298.1,5733.3c-62.7-4.7-114.4-9-114.9-9c-0.9-0.5-1.9-94-2.4-207.9l-1.4-207.9l-168,194.6
		c-142.9,165.2-170.4,194.6-182.3,196c-7.6,0.9-62.2-1.9-121.5-5.7c-58.9-4.3-110.1-7.6-113.4-7.6c-4.3,0-5.7-72.1-5.7-337v-337
		h15.7c8.1,0,58.9,3.3,112.5,7.1c53.6,3.8,103,7.1,110.1,7.1h13.3l0.9,208.8l1.4,209.3l165.6-192.7
		c91.1-105.8,168-194.1,170.9-196.5c3.3-2.8,51.3-1.4,126.3,3.3l121,8.1l2.8,35.6c1.9,19.5,3.3,171.8,3.8,338.4l0.5,302.3l-10.4-0.5
		C1416.8,5741.8,1360.8,5737.5,1298.1,5733.3z"/>
	<path class="st0" d="M6114.6,5060.7l-15.2-1.9l-1.4-101.6l-1.4-102l-12.8-12.3c-9-9.5-19-13.3-35.6-14.7
		c-19.9-2.4-25.6-0.9-37.5,9.5l-13.8,11.9l-1.4,103c-1.4,89.7-2.4,102.5-8.5,100.1c-4.3-1.4-21.4-2.8-38-2.8h-30.4v-104.4
		c0-113.4,2.4-127.2,27.1-152.8c38.9-40.3,150.5-35.1,197.9,9.5c28.5,26.6,31.3,39.9,31.3,156.6V5064l-22.3-0.9
		C6139.8,5063.1,6123.2,5061.7,6114.6,5060.7z"/>
	<path class="st0" d="M5673.7,5032.2l-33.7-1.9l-57.4-145.7c-31.3-80.2-56.5-146.2-55.5-147.1c0.5-0.5,18.5,0,39.4,1.9l38.4,3.3
		l10,24.7l10,24.7l29,3.3c16.1,1.4,41.3,2.8,56,2.8h27.5l8.5-23.3l8.1-23.3l38.4,2.4c21.4,1.4,39.4,3.3,39.9,4.3
		c0.9,0.5-23.3,63.1-54.1,139.1c-41.3,101.6-57.9,137.6-63.6,137.2C5710.7,5034.1,5692.2,5032.7,5673.7,5032.2z M5699.3,4897.4
		l14.7-41.3l-10.4-2.8c-14.2-3.8-55.5-3.8-55.5,0.5c0,9,31.3,90.7,33.7,87.8C5683.7,4939.7,5691.3,4919.8,5699.3,4897.4z"/>
	<path class="st0" d="M5351.4,5009.5c-41.8-3.3-76.4-6.2-76.9-6.6c-0.9,0-1.4-64.1-1.4-141.9v-141l82.1,5.7
		c44.6,2.8,83.1,5.7,85.4,5.7c1.9,0.5,3.3,14.2,3.3,30.9v30.4l-17.6-1.9c-10-0.9-31.3-2.4-47.5-3.8l-29.9-1.9v25.2
		c0,24.2,0.5,25.2,14.7,28c8.1,1.4,28.5,2.8,45.1,2.8h30.4v31.3v31.8l-45.1-3.3l-45.1-2.8v26.1v26.1h18.5c10,0,31.3,1.4,47.5,2.8
		l29,3.3v29.9c0,26.1-1.4,30.4-8.1,29.9C5431.2,5015.6,5393.2,5012.8,5351.4,5009.5z"/>
	<path class="st0" d="M4975.5,4984.8l-29.9-1.9V4841v-142.4h20.4c10.9,0,28,1.4,38,2.8l17.6,3.3v53.6c0,29.9,1.4,54.1,3.8,54.1
		c1.9-0.5,19.5-23.7,38.9-52.7l35.6-51.7l45.1,2.8c24.7,1.9,45.6,3.8,46,4.3c0.9,0.5-19,24.7-43.7,53.6s-45.1,53.6-45.1,54.6
		c0,1.4,6.6,4.7,14.2,8.1c19.9,8.1,41.3,34.2,47.5,57c10,36.1-6.6,75.5-38,91.1C5109.4,4988.1,5062.9,4989.5,4975.5,4984.8z
		 M5079.9,4922.6c9-8.1,10.9-29.9,3.3-43.7c-5.2-10-28.5-19-47.9-19h-13.8v35.1c0,33.2,0.9,35.6,10.9,37.5
		C5048.6,4935.4,5070.5,4930.7,5079.9,4922.6z"/>
	<path class="st0" d="M4778.6,4970.5l-12.8-1.9l-1.4-95.9c-0.9-79.7-2.8-98.2-9.5-110.6c-12.3-22.3-52.2-33.2-75.9-20.4
		c-19,10-22.8,31.3-22.8,128.6v91.6l-38-1.4l-38-1.9v-97.8c0-128.1,6.2-150.5,48.9-173.2c17.1-9,27.5-10.4,69.8-10.4
		c45.1,0,52.2,1.4,77.4,13.8c33.2,16.1,52.7,40.3,59.8,74.5c2.8,12.8,5.2,65.5,5.2,115.8v92.6l-24.7-0.5
		C4802.8,4972.9,4785.7,4971.5,4778.6,4970.5z"/>
	<path class="st0" d="M4361.8,4942.5c-6.6-0.9-32.7-2.8-57.9-4.3l-46.5-3.3V4793v-142.4l48.9,3.3c105.4,6.6,142.4,17.6,163.7,49.4
		c12.3,18.5,14.2,59.3,3.3,80.2c-6.2,12.8-32.3,29-45.6,29c-3.3,0,0,6.2,7.6,14.2c17.1,18,22.3,60.8,10,84.5
		C4433.5,4934,4399.3,4946.8,4361.8,4942.5z M4368.5,4883.7c14.2-5.2,20.4-23.3,12.8-37.5c-4.3-8.1-30.4-19.5-44.1-19.5
		c-2.4,0-3.8,13.8-3.8,30.9c0,29.4,0.5,30.9,11.4,30.9C4351.4,4888.4,4361.8,4886.5,4368.5,4883.7z M4398.9,4768.8
		c9-9,6.6-34.6-3.8-44.1c-6.2-5.2-19.5-9.5-35.6-10.9l-26.1-1.9v31.3v31.3h29.9C4380.3,4774.5,4395.5,4772.1,4398.9,4768.8z"/>
	<path class="st0" d="M3914.7,4913.1l-37-1.4v-87.3c0-48.4-1.4-87.8-3.3-87.3c-2.4,0-34.6,36.5-72.6,80.7l-68.8,80.2h-28.5
		c-15.7,0-33.2-1.4-38.9-2.8l-10.9-2.8v-141v-140.5l38,1.4l38,1.9v87.3c0,47.9,1.4,87.3,3.8,86.9c1.9,0,34.2-36.1,72.1-80.7
		l68.8-80.2h33.2c18.5,0,36.1,1.9,39.4,3.8c4.3,3.3,5.7,35.1,4.7,143.8l-1.4,139.5L3914.7,4913.1z"/>
	<path class="st0" d="M0,4883.7c0-3.8,3.3-26.1,7.6-49.8c21.4-123.4,72.6-252.5,141.4-355c17.1-26.1,31.3-48.4,31.3-50.8
		c0-11.9,107.3-142.9,141-171.8c11.9-10,37.5-29.4,57-42.7c19.5-12.8,48.9-35.1,65-48.9c50.8-42.7,78.3-60.3,101.6-64.5
		c11.9-2.4,26.6-8.5,32.3-14.2c5.2-5.2,11.9-9,14.2-8.1c5.7,1.4,64.5-18,92.1-30.4c11.9-5.2,31.8-11.4,45.1-12.8
		c12.8-1.9,30.4-6.6,38-10.9c8.1-4.3,26.1-10,40.3-12.8c34.2-6.6,128.1-15.2,133.4-11.9c2.4,1.4,30.4,0,62.2-2.8
		c88.8-8.5,95.4-8.5,109.2-1.9c28,14.2,27.5,16.1,27.5-94.9c0-91.1,0.9-103.5,9.5-122.9c14.7-32.7,18-94,15.7-259.6
		c-2.8-166.6,5.7-318,17.6-318c1.9,0,33.7,29.4,70.7,65.5c60.8,59.3,79.3,82.6,59.8,75c-27.1-10.4,21.4,28.5,97.3,78.3
		c22.3,14.7,51.7,36.5,65.5,48.9c23.7,21.8,30.4,22.3,19.5,1.9c-6.2-11.4-6.2-11.4,36.1,16.6c47.5,31.8,68.3,50.8,83.5,76.4
		c10,16.6,26.1,32.3,50.8,50.3c30.4,21.8,221.7,206,221.7,213.6s22.3,28,85.9,79.3c39.4,31.8,92.1,77.4,117.2,101.1l45.6,43.2
		l77.4-0.5c47.9-0.5,95.4,2.4,124.8,6.6c31.3,5.2,81.2,7.6,144.8,7.6c67.9,0,99.7,1.9,103.5,5.7c8.5,8.5,52.7,12.8,181.3,17.6
		c126.3,4.7,199.3,12.8,373.5,40.8c109.2,17.6,168,21.8,170.9,13.3c1.4-3.8,6.6-3.8,17.6-0.5c19,6.2,74.5,0.5,64.1-6.2
		c-10.9-6.6,88.3-4.7,138.6,2.8c25.2,3.8,57,10.9,70.7,16.1c19,7.1,27.5,8.5,34.6,4.7c17.1-9.5,83.5-6.2,145.7,6.6
		c74,15.2,146.7,24.7,268.2,33.7c52.2,4.3,152.8,11.9,223.1,17.1c294.7,22.8,369.7,31.8,410.1,50.8c8.5,3.8,34.2,10,57,13.8
		c55.5,9,236.8,29.4,306.6,35.1c31.3,2.4,68.8,6.6,83.1,9.5c47.5,9.5,196,28,263.4,33.2c137.2,10.9,320.4,38.9,453.3,69.3
		c40.3,9.5,74.5,18,75.5,19c1.4,1.4-13.8,0.9-33.2-0.9c-19.5-1.9-34.2-1.9-32.7-0.5c1.4,1.4,24.7,8.1,52.2,14.2
		c71.2,16.6,83.5,23.3,38,19.9c-290.5-19.9-448-33.2-467-38.9c-6.2-1.4-7.6-0.5-5.2,3.3c2.8,4.3-0.9,5.2-14.7,2.8
		c-53.2-8.5-879.5-98.2-1266.8-138.1c-783.6-79.7-1332.3-125.3-1929.4-159c-252-14.2-240.6-12.8-253.5-30.4
		c-6.2-8.1-22.8-35.1-37-59.8c-21.4-37.5-32.7-51.3-66-79.7c-62.2-54.1-208.8-167.1-341.3-262.9
		c-219.3-158.5-268.2-192.7-271.5-189.9c-5.7,5.7-12.8,166.6-16.1,372.6l-3.3,203.6l-50.3-3.3c-27.5-1.4-71.7-4.7-97.8-7.1
		c-51.3-4.7-222.6-6.2-298.1-2.8c-31.3,1.4-49.4,4.3-54.6,9c-14.2,12.3-26.6,16.1-60.3,19.5c-42.2,4.3-95.4,22.3-137.6,46.5
		c-47.9,27.5-123.4,83.5-159,118.7c-32.7,31.8-70.2,60.3-90.7,68.8c-19,8.1-108.7,123.4-108.7,140c0,2.8-9.5,18-20.9,34.2
		c-11.4,15.7-37,62.2-57.4,102.5c-19.9,40.3-43.7,85.4-52.2,99.7c-8.5,14.2-17.1,31.3-19,38c-1.9,6.6-12.8,27.1-24.2,46
		c-11.4,18.5-20.9,35.6-20.9,38C23.7,4856.2,0.5,4890.8,0,4883.7z M3455.3,4138.5c-3.8-2.4-15.7-4.3-26.1-4.3
		c-18.5,0.5-18.5,0.9-4.7,4.3c8.1,1.9,19.5,3.8,26.1,4.3C3460,4142.8,3461,4142.3,3455.3,4138.5z"/>
	<path class="st0" d="M3369.9,4883.2c-51.7-10-104.9-50.3-125.8-95.9c-18-38-16.6-86.9,2.8-125.8c27.5-55.5,72.6-78.8,144.8-75.9
		c37,1.4,47.9,3.8,74.5,17.1c54.1,26.6,88.3,75.9,92.6,134.3c5.2,72.6-37,127.2-112.5,144.8
		C3416.4,4888.9,3400.7,4889.4,3369.9,4883.2z M3441.1,4806.8c27.1-13.8,39.9-35.6,38.9-66c-0.5-25.6-5.7-38.4-24.2-57.9
		c-35.1-38.4-92.6-39.9-125.8-3.3c-29.4,32.3-28,77.8,3.3,108.2C3364.6,4818.2,3404.5,4825.3,3441.1,4806.8z"/>
	<path class="st0" d="M3084.1,4856.6l-22.8-1.9v-142.9V4569l29,3.3c16.1,1.4,33.2,2.8,38,2.8c8.5,0,9,7.1,9,142.4v142.4l-15.2-0.9
		C3113.6,4858.5,3096.5,4857.6,3084.1,4856.6z"/>
	<path class="st0" d="M2888.1,4842.9c-41.8-2.8-85.9-6.2-98.2-6.2l-22.8-0.5v-31.3v-31.8l33.2,3.3l33.2,3.3v-111.5v-112h20.4
		c10.9,0,28,1.4,38,2.8l17.6,3.3v110.6V4784h13.3c7.1,0,20.9,1.4,30.9,2.8l17.6,3.3v29.9c0,16.6-1.4,29.9-3.3,29.9
		C2965.5,4849.5,2929.9,4846.2,2888.1,4842.9z"/>
	<path class="st0" d="M2609,4823.4c-1.9-1.4-3.3-41.3-3.3-87.8s-1.4-84.5-3.3-84c-2.4,0-34.6,36.5-72.6,80.7l-68.3,80.2h-24.7
		c-13.3,0-31.3-1.4-39.4-2.8l-14.7-2.8v-142.4V4522l10.9,2.8c5.7,1.4,22.8,2.8,38,2.8h27.1v87.8c0,48.4,1.4,87.8,3.8,87.8
		c1.9,0,34.2-36.5,72.1-80.7l68.8-80.7l38,0.9l38,1.4l1.4,141.4l0.9,141H2647C2627.5,4826.7,2610.5,4825.3,2609,4823.4z"/>
	<path class="st0" d="M2185.7,4795.4c-41.8-2.8-76.4-6.2-76.9-6.2c-0.9-0.5-1.4-64.5-1.4-143.3c0-133.4,0.5-142.4,8.5-140
		c4.3,0.9,33.7,3.3,65,5.2c31.3,1.4,66,3.8,77.4,5.7l19.9,2.4v29.9c0,28-0.5,29.4-10.4,28c-6.2-0.9-27.5-2.4-47.5-3.8l-37-1.9v25.2
		c0,24.2,0.5,25.2,14.7,28c8.1,1.4,28.5,2.8,45.1,2.8h30.4v31.3v31.8l-45.1-3.3l-45.1-3.3v26.1v26.6h22.8c12.3,0,33.7,1.4,47.5,2.8
		l24.7,3.3v29.9c0,26.1-1.4,30.4-8.1,29.9C2265.4,4802,2227.4,4798.7,2185.7,4795.4z"/>
	<path class="st0" d="M1964.5,4780.7l-17.1-1.9l-34.6-85.4c-19-47-36.1-86.4-38-87.3c-1.9-1.4-19.5,34.2-38.4,78.8
		s-37,82.1-39.9,83.1c-2.4,0.9-21.4,0-41.3-1.9l-36.5-3.3l62.2-136.2l62.2-136.7h29h29l60.3,139.1c33.2,75.9,61.7,142.4,63.6,147.1
		c2.4,7.1,0,8.1-19.9,7.1C1992,4782.6,1974,4781.6,1964.5,4780.7z"/>
	<path class="st0" d="M1596.2,4757l-34.6-1.9l-0.9-87.8l-1.4-88.3l-70.2,81.2l-70.2,81.6l-36.5-1.4l-36.5-1.4l-1.4-141l-0.9-141.4
		h31.8c18,0,35.1,1.9,38,3.8c4.3,2.8,6.2,28,7.1,88.3l1.4,85l70.2-81.6l70.2-81.2h27.1c14.7,0,31.8,1.4,38,2.8l10.4,2.8v141.9
		c0,78.3-1.4,141.4-3.3,141C1631.8,4758.9,1614.7,4757.4,1596.2,4757z"/>
	<path class="st0" d="M1051.3,4725.6c-51.7-13.8-97.8-48.4-120.1-91.1c-10.9-20.4-12.8-29.4-12.8-64.1s1.9-43.7,12.8-64.1
		c14.7-28.5,36.5-49.4,65.5-64.5c18.5-10,28-11.4,71.2-11.4c44.6,0,52.7,1.4,78.3,13.3c78.3,36.5,119.1,126.3,91.1,198.9
		c-10.9,28.5-51.7,66.4-82.6,76.9C1123.4,4730.4,1079.8,4732.7,1051.3,4725.6z M1133.4,4647.8c24.7-18.5,35.1-38.9,33.2-66.4
		c-4.3-48.4-42.2-83.5-91.6-83.5c-47,0-74.5,26.6-77.4,75c-1.4,25.6-0.5,30.4,12.3,47.9c20.4,27.5,48.4,40.8,83.1,38.4
		C1110.6,4658.2,1124.9,4654.4,1133.4,4647.8z"/>
	<path class="st0" d="M729.5,4702.8c-72.1-17.1-126.7-78.3-130.5-146.7c-2.4-38.4,4.3-63.6,22.8-89.7c37-50.8,109.6-71.2,177-49.8
		l27.1,8.5v41.8v42.2l-15.2-11.4c-80.7-60.3-172.8,19-119.1,102.5c23.3,36.1,86.4,47.9,120.1,22.8l14.2-10.4v42.7v42.2l-23.7,5.2
		C774.1,4709,754.7,4709,729.5,4702.8z"/>
</g>
</svg>
