<?xml version="1.0" encoding="utf-8"?>
<!-- Generator: Adobe Illustrator 26.5.0, SVG Export Plug-In . SVG Version: 6.00 Build 0)  -->
<svg version="1.1" id="Calque_1" xmlns="http://www.w3.org/2000/svg" xmlns:xlink="http://www.w3.org/1999/xlink" x="0px" y="0px"
	 viewBox="0 0 477.3 287.1" style="enable-background:new 0 0 477.3 287.1;" xml:space="preserve">
<style type="text/css">
	.st0{fill:#EB5E57;}
</style>
<g transform="translate(0.000000,795.000000) scale(0.100000,-0.100000)">
	<path class="st0" d="M2291.3,7943.5l-82.6-5.4V7861c0-88,2.9-81.1-36.6-81.1h-25v-75.3v-75.3l30.8,1.4l30.8,1.8v-181.8v-181.4h17.4
		c9.4,0,50.3,2.5,91.2,5.4c40.9,2.9,76.4,5.4,78.9,5.4c3.3,0,4.3,39.1,4.3,182.5v182.5l28.2,2.2c15.2,1.4,35.8,2.9,45.6,4
		c16.7,1.4,17.4,1.1,15.2-6.5c-13.8-47.4-14.5-53.6-14.8-102.1c0-58.7,5.1-82.6,26.4-124.9c15.9-32.2,50-68.4,82.6-88
		c97-58.3,255.3-55.4,363.5,7.2c35.5,20.6,78.6,65.5,94.9,98.9c7.2,14.8,14.1,31.9,15.2,37.7l2.5,10.1l-15.6-1.8
		c-8.7-1.4-48.9-4.3-89.8-6.5l-73.9-4.7l-20.3-20.6c-16.3-16.7-24.6-22.1-41.6-26.8c-27.5-8.3-84.7-6.2-103.2,3.3
		c-30.4,15.9-47.1,41.6-50,77.1l-1.8,22.8h10.5c5.8,0,94.5,5.8,197,12.7c102.5,6.9,188.6,12.7,191.5,12.7c6.9,0,3.3,76-5.1,106.8
		c-32.2,119.5-133.6,185-275.2,178.1c-118.4-5.8-208.9-52.1-266.9-136.5c-5.8-8.7-6.2-6.9-6.2,46.7l-0.4,55.4l-36.9-2.2
		c-20.6-1.4-44.9-3.3-54.3-4.3l-17.4-2.2v78.2v78.2l-13.4-0.7C2379.6,7949.3,2336.5,7946.4,2291.3,7943.5z M2818.8,7716.5
		c11.9-3.3,27.9-9.8,35.5-14.8c15.2-10.1,35.1-38.4,35.1-50.3c0-7.6-2.5-8-103.9-14.1c-57.6-3.3-107.9-6.9-112.2-7.6
		c-7.2-1.8-7.6-1.1-4.7,9.4c8.3,28.6,34,57.6,61.6,69.5c11.9,4.7,46.3,12.7,57.9,13C2793.1,7721.9,2807.3,7719.4,2818.8,7716.5z"/>
	<path class="st0" d="M3325.8,7874c-96-8.3-172.4-47.4-209.3-107.5c-18.5-29.7-25-57.2-23.5-97c1.8-42.7,11.2-65.2,35.8-86.5
		c21.4-18.1,47.1-26.8,113.7-38.4c76.4-13,88.7-19.6,88.7-47.4c0-16.3-19.2-33.7-43.8-39.5c-34.4-8.3-94.5,2.5-144.5,26.4
		l-24.3,11.6l-32.2-60.8c-17.7-33.7-32.6-63-33.3-65.5c-1.1-5.4,29.7-19.9,66.3-31.1c98.5-30.1,210-20.6,296.9,24.6
		c31.9,16.7,72.8,56.5,86.2,84c29,59.4,25.3,129.3-9.1,168.4c-28.6,32.2-67,48.2-138.3,57.6c-48.5,6.5-67,13.8-74.2,29
		c-6.9,14.5,1.4,31.1,20.3,40.6c19.9,9.8,75.7,11.6,106.5,3.3c37.7-10.1,33.3-13.4,66.6,48.9c16.7,30.8,30.4,57.2,30.8,58.3
		c0,1.4-9.4,4.7-20.6,8C3438.4,7873.3,3378.6,7878.3,3325.8,7874z"/>
	<path class="st0" d="M1879.2,7774.1c-45.6-9.8-82.9-33.3-116.6-73.9l-13.8-16.3v34v34l-27.9-2.2c-15.6-1.4-58.7-4.3-96-6.5
		l-68.1-4.3v-257.4V7224l92.7,6.2c51.1,3.3,93.4,6.9,94.5,8c1.1,0.7,2.9,72.4,4.3,158.6c2.5,153.5,2.5,157.1,10.9,175.6
		c9.8,22.4,33.3,45.3,53.2,52.1c7.6,2.5,27.2,5.1,43.1,5.1c39.5,0,54-7.6,68.8-36.2l10.9-21.4l1.1-161.1l1.1-161.5l87.6,6.2
		c48.2,3.3,90.5,6.2,94.1,6.2c5.8,0.4,6.2,11.6,6.2,180c0,197.7-1.1,209.6-22.4,253.8c-12.3,25-39.8,53.6-63.7,65.9
		C2004.2,7779.5,1930.6,7785.3,1879.2,7774.1z"/>
	<path class="st0" d="M1394,7727.3c-32.9-2.5-65.9-4.7-73.1-5.1l-13.8-0.4v-25.7v-25.3l-15.2,12.3c-36.6,29.7-80,43.5-136.9,43.5
		c-79.3,0-145.9-28.2-202.4-85.5c-56.5-57.6-84.4-126.4-84.4-208.9c0.4-43.1,8-76.8,26.1-114.1c43.5-89.1,124.6-139.4,224.1-139.4
		c69.5,0.4,122,19.6,162.2,59.7c13,13,24.3,23.5,25,23.5c0.7,0,1.4-12.3,1.4-27.2v-27.2h9.8c17.4,0,176.7,11.6,178.1,12.7
		c0.7,0.7,2.2,116.2,3.3,256.7l1.8,255.6l-23.2-0.4C1464.3,7732,1427,7729.5,1394,7727.3z M1251,7563
		c40.6-18.1,60.8-51.4,61.2-100.3c0-26.1-1.4-32.2-11.6-53.2c-14.1-28.6-36.9-49.6-65.5-61.2c-28.6-11.2-85.5-11.6-109-0.7
		c-23.5,10.9-38.7,25-50,46.3c-8.7,16.3-9.8,22.4-9.8,52.9c0,27.5,1.4,37.7,8,51.4c15.6,33.7,50.3,62.3,86.9,71.7
		C1184.4,7575.6,1230.7,7572,1251,7563z"/>
	<path class="st0" d="M720.6,7691.1c-32.9-2.5-66.6-4.7-75-5.1l-15.6-0.4v-157.9c0-94.1-1.4-157.1-3.3-156.4
		c-1.8,0.7-60.8,67.7-131.1,148.8l-127.5,148.1l-18.5-2.2c-10.1-1.1-49.2-3.6-87.3-5.8c-37.7-2.2-72.4-4.7-76.8-5.8l-8.3-1.4v-257.4
		v-257.1l15.2,1.8c8.7,1.1,44.9,3.6,80.7,5.8c35.8,2.2,72.1,4.7,80.4,5.8l15.6,1.8l0.7,158.2l1.1,158.2l124.6-144.8
		c68.4-79.7,126.7-147,129.3-149.9c4-4.7,17.4-4.3,98.1,1.1c51.1,3.3,94.1,6.9,95.2,8c1.1,1.1,2.2,117,2.9,257.1l1.4,254.9
		l-21.4-0.4C789.7,7695.8,753.5,7693.3,720.6,7691.1z"/>
	<path class="st0" d="M3596.3,7377.6c-35.8-17.7-55-47.8-55-85.8c0-60.8,68.4-100.7,127.1-74.2c74.2,33.3,81.5,130.7,12.3,162.6
		C3653.5,7392.8,3624.9,7392,3596.3,7377.6z"/>
	<path class="st0" d="M4456.9,7233.1c-106.1-12.3-193-62.3-241.9-139.4l-11.2-17.7v65.2v65.2l-24.3-1.4
		c-64.1-3.6-114.1-23.2-151-58.7c-12.7-11.9-25.7-27.5-29.7-34.4c-3.6-6.9-8-12.7-9.4-12.7c-1.8,0-2.9,19.6-2.9,43.1v43.5l-11.6-1.4
		c-6.5-1.1-40.6-3.3-75.3-5.4c-34.8-2.2-72.8-4.7-84-5.8l-21-2.2v-258.9v-258.5l15.6,1.8c8.3,1.1,44.5,3.6,80.4,5.8
		c35.8,2.2,72.1,4.7,80.7,5.8l15.2,1.8v111.9c0,132.5,2.5,158.6,20.3,194.4c15.6,32.2,35.1,48.5,71.7,59.7
		c26.1,8,81.1,10.9,100.3,5.8l9.4-2.9l-5.1-18.8c-7.6-29.3-10.9-77.1-8-112.6c9.8-107.9,78.6-185.4,189.7-213.3
		c27.2-6.5,42.4-8,90.5-8c78.2-0.4,118.8,9.1,181,40.6c46.7,23.9,89.1,66.3,110.1,109.7c20.6,43.1,20.3,44.5-7.6,41.6
		c-12.7-1.1-52.9-4-89.4-6.2l-67-4.3l-20.3-21c-16.3-16.7-24.6-22.1-41.6-26.8c-29.7-8.7-84.7-6.2-105.4,4.7
		c-19.9,10.1-39.5,33.3-44.2,52.5c-6.5,24.6-8.7,46-5.4,46c2.2,0,89.1,5.8,193.4,12.7c104.3,6.9,195.2,12.7,202,12.7h12.3l-2.5,38.4
		c-8.7,130-71,211.1-183.9,240.1C4554.3,7233.8,4494.6,7237.4,4456.9,7233.1z M4529,7111.8c23.5-7.2,53.6-34,60.5-54.3
		c2.5-8,4.3-14.8,4-15.6c-1.1-0.7-204.9-15.2-218.3-15.2c-6.9,0-7.6,1.1-5.1,10.1c6.9,23.5,26.4,47.8,51.4,63
		C4448.2,7116.5,4495.7,7121.6,4529,7111.8z"/>
	<path class="st0" d="M3622.7,7161l-83.3-5.8l-1.1-257.8l-0.7-258.2h15.2c8.7,0,48.9,2.5,89.8,5.4c40.9,2.9,77.1,5.4,80.7,5.4
		c5.8,0,6.2,14.8,6.2,258.9v258.9l-11.6-0.4C3711.4,7167.2,3668.7,7164.3,3622.7,7161z"/>
	<path class="st0" d="M3374.7,7144.4c-32.9-2.5-67.3-4.7-76.8-5.1l-17.4-0.4v-25.3v-25.3l-17,13.4c-36.6,27.9-79.3,40.9-133.2,41.3
		c-46,0-81.5-7.6-123.1-27.2c-61.2-29-109-76.8-138.7-139c-65.2-137.6-17.4-295.1,108.3-357c40.2-19.9,72.4-27.5,117.7-27.5
		c65.2,0,121.7,21.4,161.9,62.3l24.3,24.6v-29.7v-29.3l28.2,2.2c15.2,1.4,58.3,4.3,96,6.5l67.7,4.3v258.5v258.2l-18.8-0.4
		C3443.1,7149.1,3407.6,7146.6,3374.7,7144.4z M3219.3,6981.4c23.5-8,44.5-27.2,56.5-51.8c8.7-17.7,10.1-25,10.1-51.4
		c0-27.5-1.4-33.7-11.9-55c-19.2-38.7-50.3-60.1-99.6-68.1c-63-9.8-118.4,19.9-132.9,71.7c-6.2,22.4-4.3,60.1,4,81.8
		C3069.1,6972,3149.4,7005.7,3219.3,6981.4z"/>
	<path class="st0" d="M2574.4,7091.5c-138.3-9.4-252.7-17.4-254.2-17.4c-1.8-0.4-2.9-33.7-2.9-74.6v-74.2l21,0.4
		c11.2,0,61.2,2.9,110.4,6.2c60.8,4.3,89.4,5.1,88.7,2.5c-0.7-2.2-57.2-87.3-125.3-189.7c-68.4-102.1-123.5-186.5-122.7-187.6
		c1.8-1.8,499.3,29.7,530.5,33.7l15.2,1.8v74.2v73.9h-18.8c-10.5-0.4-61.6-3.3-113.3-6.9s-94.9-6.2-95.6-5.4s55,86.2,123.8,189.7
		c69.2,103.6,125.6,189,125.6,190.1C2856.9,7111.1,2840.2,7110,2574.4,7091.5z"/>
	<path class="st0" d="M2145.4,7063.3l-83.3-5.8l-2.2-10.9c-1.4-5.8-2.5-17-2.9-24.3l-0.4-13.8l-17,13.4
		c-40.2,30.4-85.8,43.1-147.4,39.8c-105.4-5.1-196.6-64.8-243.3-160c-22.4-45.6-30.8-81.1-31.1-130.4c0-48.5,6.5-80,26.1-119.5
		c44.2-90.5,124.6-139.4,227.8-139.4c69.5,0,122,19.9,162.6,60.8l22.4,22.8V6569v-27.5h17.4c9.4,0,50.3,2.5,91.2,5.4
		c40.9,2.9,76.4,5.4,78.9,5.4c3.3,0,4.3,54.3,4.3,258.9v258.9l-9.8-0.4C2233,7069.4,2191.4,7066.5,2145.4,7063.3z M1997.3,6901.1
		c25-8.3,52.1-36.6,60.5-62.3c15.2-47.1,4-94.1-29.7-127.5c-55.4-54.7-157.1-51.4-195.5,6.5c-20.3,30.4-23.9,79.3-8,114.8
		c7.2,17,27.9,41.6,44.5,53.2C1898.1,6906.9,1959.6,6914.1,1997.3,6901.1z"/>
	<path class="st0" d="M696.3,7027.8l-19.2-1.4v-34.4v-34h-12.7h-12.7v-30.8v-30.8h12.3h12.3l1.4-37.3c1.1-32.6,2.5-39.1,11.2-54
		c16.3-27.9,49.2-46.3,83.3-46.3h13.4v38v38h-11.6c-6.5,0-13.8,1.4-16.3,2.9c-2.2,1.4-4.3,15.2-5.1,33.3l-1.4,30.8l22.8,1.1
		l22.4,1.1v31.9v32.2l-23.5-2.2l-23.5-1.8v33.3v32.9l-17-0.7C722.7,7029.2,706.4,7028.5,696.3,7027.8z"/>
	<path class="st0" d="M1468.3,7023.1c-47.8-3.6-87.3-6.9-87.6-6.9c-0.7-0.4-1.4-71.7-1.8-158.6l-1.1-158.6l-119.1,137.6
		c-65.5,75.7-123.8,143-129.6,149.9l-10.9,12.3l-67.7-4.3c-36.9-2.2-80-5.1-95.2-6.5l-28.2-2.2v-256.4v-256.7h13.8
		c7.2,0,46,2.5,85.8,5.4c39.8,2.9,76.8,5.4,82.2,5.4h10.1l0.7,159.3l1.1,159l130-150.3l129.6-150.6l18.8,2.2
		c10.1,1.1,48.5,3.6,85.5,5.8c36.9,2.2,70.6,4.7,75.3,5.8l8,1.4v257.1c0,242.6-0.4,257.1-6.2,256.7
		C1558.1,7029.6,1516.1,7026.3,1468.3,7023.1z"/>
	<path class="st0" d="M392.9,6961.2c-101.4-15.6-168.4-87.6-168.4-181.4c0-63.7,22.1-97.4,77.5-118.4c10.1-3.6,38-11.2,61.9-16.7
		c76-16.7,97-31.9,90.9-65.5c-10.1-54-102.1-63.7-171.3-17.7c-10.5,6.9-19.9,12.7-20.6,12.7s-9.4-14.1-18.8-31.5
		c-9.4-17.7-22.4-42-29.3-54.7l-12.7-22.4l30.8-14.5c85.5-40.2,186.1-40.9,265.8-1.8c30.1,14.8,62.3,42.7,76,65.9
		c22.1,38,31.5,98.5,21.4,138c-14.5,57.6-50.3,81.5-157.9,106.1c-37.7,8.3-50.3,13.8-61.6,25.7c-10.5,11.2-9.8,32.2,1.8,46
		c22.1,26.1,78.2,30.1,121.3,8.7c13-6.2,23.5-11.2,23.9-10.9c18.8,32.2,52.1,101.7,49.6,104.3c-5.4,5.4-44.5,18.1-71.7,23.2
		C465.3,6963,418.2,6965.1,392.9,6961.2z"/>
	<path class="st0" d="M763.3,6670.8l-97-7.6v-53.6c0-29.3,1.1-53.6,2.9-53.6c1.4,0,44.2,3.3,94.9,7.2c50.7,4,94.5,7.2,97,7.2
		c3.3,0,4.3,13.4,4.3,54.3c0,30.1-1.1,54-2.5,54C861,6678.4,816.5,6674.8,763.3,6670.8z"/>
	<path class="st0" d="M4344,6517.2c-7.2-5.8-13-10.9-13-11.9s11.6-10.5,25.7-21.4l25.3-19.6l9.4,9.4l9.4,9.4l-19.9,21
		c-10.5,11.6-20.3,21.4-21.7,22.1C4358.1,6526.7,4351.2,6522.7,4344,6517.2z"/>
	<path class="st0" d="M4569.5,6465.8c-39.1-12.7-62.3-47.1-55.8-82.9c5.8-31.1,16.7-40.9,57.9-51.4c14.8-3.6,31.1-9.4,36.2-12.3
		c10.5-7.2,11.2-19.9,1.8-31.5c-9.1-11.2-36.2-11.6-58.3-0.4c-8.7,4.3-16.3,7.2-16.7,6.9c-2.9-3.3-19.6-39.1-19.6-42
		c0-7.6,41.3-19.6,68.8-19.6c59-0.4,94.5,33.7,89.4,85.5c-2.9,30.8-22.4,48.5-64.5,58.7c-24.6,6.2-39.5,15.2-39.5,23.5
		c0,2.2,4,8,9.1,12.7c9.8,10.1,29,11.9,47.1,4l10.9-4.7l8,18.5c4.3,10.1,8,20.3,8.3,22.4C4653.2,6462.2,4588.7,6472.3,4569.5,6465.8
		z"/>
	<path class="st0" d="M4401.2,6449.2c-1.8-0.7-23.9-2.5-48.9-3.6l-45.3-2.5l6.5-99.9c3.3-55.4,7.2-105.7,8.3-112.6l1.8-11.9
		l33.3,2.2c18.5,1.4,46.3,3.3,62.3,4.3l29,2.2l-1.1,23.5l-1.4,23.5l-35.8-2.5l-35.8-2.5v21.7v21.7l30.4,1.1
		c16.7,0.7,31.5,2.5,32.6,3.6s1.1,11.6,0,23.5l-2.2,21.4h-33.3h-33l-1.1,19.2l-1.1,18.8h12.3c6.9,0,22.4,1.1,34.8,2.2l22.1,2.5v14.8
		c0,26.4-2.9,31.1-17.7,30.8C4410.6,6450.6,4403.3,6449.9,4401.2,6449.2z"/>
	<path class="st0" d="M4082.5,6429.6l-21.7-2.2l8-110.4c4-60.8,8-110.8,8-111.2c0.7-1.8,27.5-1.1,41.3,1.4l13.8,2.2l-2.5,42.7
		c-1.4,23.9-1.8,43.1-0.7,43.1c0.7,0,15.2-18.8,31.9-42l30.4-41.6l32.9,2.5c17.7,1.1,33,2.9,33.7,3.3c0.4,0.4-15.6,19.2-35.5,42
		c-19.9,22.4-36.2,42-36.2,43.1c0,1.1,6.2,5.1,13.8,9.1c23.9,13,36.6,51.8,25.7,80.4c-5.1,13.8-20.6,30.1-34.8,35.8
		C4178.5,6432.9,4126.7,6434,4082.5,6429.6z M4161.8,6381.8c9.4-7.2,12.3-20.6,7.2-34c-3.3-7.6-20.3-16.3-33.3-16.3
		c-9.4,0-10.9,1.4-13,13.8c-1.1,7.2-2.2,20.3-2.2,29v15.2h15.9C4147,6389.4,4155.3,6386.9,4161.8,6381.8z"/>
	<path class="st0" d="M3849.3,6416.2c-60.1-15.9-94.5-72.1-83.6-134.7c8-45.3,32.6-76.8,72.1-91.6c28.6-10.9,73.9-8.7,100.3,5.1
		c36.2,18.5,55.8,51.4,58.7,98.1l1.8,28.6l-37.7-2.5c-20.6-1.4-46.3-3.3-56.5-4.3l-19.2-2.2v-21.7v-21.7l25.3,2.5
		c27.9,2.9,28.6,2.2,20.3-18.1c-9.1-21.4-41.3-32.2-65.9-21.7c-7.6,2.9-17,8.3-21,11.9c-20.3,18.1-26.8,67.7-12.7,97
		c17.4,36.6,64.8,43.8,89.4,13.8l10.9-13l22.8,11.6c12.7,6.5,23.9,12.3,24.6,13s-2.2,6.5-6.9,13
		C3946.8,6415.9,3900,6430,3849.3,6416.2z"/>
	<path class="st0" d="M3649.1,6397.8c-20.3-1.8-19.2,5.1-13.4-73.1c2.2-29.7,3.3-56.8,2.5-60.5c-0.7-5.1-17.7,11.6-60.8,59.4
		c-55.8,62.6-60.1,66.3-69.9,64.5c-5.8-1.1-18.1-2.2-27.5-2.2h-17l6.9-100.3c3.3-55.4,7.2-106.1,8.3-113l1.8-12.3l25.7,2.2
		c14.1,1.1,26.1,2.9,27.2,4c1.1,0.7-0.4,29-2.5,62.6c-2.5,33.3-4,64.1-3.3,67.7c1.1,5.1,15.9-9.4,59.4-58.7l57.9-65.9l27.2,2.2
		c14.8,1.1,27.9,2.5,28.6,3.6c1.8,1.8-9.8,192.3-13,210.7C3685,6401.4,3687.5,6400.7,3649.1,6397.8z"/>
	<path class="st0" d="M3246.1,6373.9c-56.1-18.8-89.8-60.5-90.2-111.2c0-29.7,5.4-48.9,20.6-71c24.6-37.3,61.9-54.3,110.8-51.4
		c34,2.2,63,15.2,84,38c22.1,24.3,29.7,44.5,30.1,80.7c0.4,26.8-1.1,33.7-9.8,51.4c-19.2,39.1-57.9,63.7-105,66.6
		C3270.7,6377.8,3255.2,6376.8,3246.1,6373.9z M3308,6317.4c61.6-27.9,40.6-123.1-27.2-123.5c-58.3,0-88.7,69.5-48.2,110.4
		C3253,6324.6,3281.2,6329.3,3308,6317.4z"/>
	<path class="st0" d="M0,6364.1c0-2.9,2.5-19.9,5.8-38c16.3-94.1,55.4-192.6,107.9-270.8c13-19.9,23.9-36.9,23.9-38.7
		c0-9.1,81.8-109,107.5-131.1c9.1-7.6,28.6-22.4,43.5-32.6c14.8-9.8,37.3-26.8,49.6-37.3c38.7-32.6,59.7-46,77.5-49.2
		c9.1-1.8,20.3-6.5,24.6-10.9c4-4,9.1-6.9,10.9-6.2c4.3,1.1,49.2-13.8,70.2-23.2c9.1-4,24.3-8.7,34.4-9.8c9.8-1.4,23.2-5.1,29-8.3
		c6.2-3.3,19.9-7.6,30.8-9.8c26.1-5.1,97.8-11.6,101.7-9.1c1.8,1.1,23.2,0,47.4-2.2c67.7-6.5,72.8-6.5,83.3-1.4
		c21.4,10.9,21,12.3,21-72.4c0-69.5,0.7-78.9,7.2-93.8c11.2-25,13.8-71.7,11.9-198.1c-2.2-127.1,4.3-242.6,13.4-242.6
		c1.4,0,25.7,22.4,54,50c46.3,45.3,60.5,63,45.6,57.2c-20.6-8,16.3,21.7,74.2,59.7c17,11.2,39.5,27.9,50,37.3
		c18.1,16.7,23.2,17,14.8,1.4c-4.7-8.7-4.7-8.7,27.5,12.7c36.2,24.3,52.1,38.7,63.7,58.3c7.6,12.7,19.9,24.6,38.7,38.4
		c23.2,16.7,169.1,157.1,169.1,162.9c0,5.8,17,21.4,65.5,60.5c30.1,24.3,70.2,59,89.4,77.1l34.8,33l59-0.4
		c36.6-0.4,72.8,1.8,95.2,5.1c23.9,4,61.9,5.8,110.4,5.8c51.8,0,76,1.4,78.9,4.3c6.5,6.5,40.2,9.8,138.3,13.4
		c96.3,3.6,152.1,9.8,285,31.1c83.3,13.4,128.2,16.7,130.4,10.1c1.1-2.9,5.1-2.9,13.4-0.4c14.5,4.7,56.8,0.4,48.9-4.7
		c-8.3-5.1,67.3-3.6,105.7,2.2c19.2,2.9,43.5,8.3,54,12.3c14.5,5.4,21,6.5,26.4,3.6c13-7.2,63.7-4.7,111.2,5.1
		c56.5,11.6,111.9,18.8,204.6,25.7c39.8,3.3,116.6,9.1,170.2,13c224.9,17.4,282.1,24.3,312.8,38.7c6.5,2.9,26.1,7.6,43.5,10.5
		c42.4,6.9,180.7,22.4,233.9,26.8c23.9,1.8,52.5,5.1,63.4,7.2c36.2,7.2,149.5,21.4,201,25.3c104.6,8.3,244.4,29.7,345.8,52.9
		c30.8,7.2,56.8,13.8,57.6,14.5c1.1,1.1-10.5,0.7-25.3-0.7s-26.1-1.4-25-0.4c1.1,1.1,18.8,6.2,39.8,10.9
		c54.3,12.7,63.7,17.7,29,15.2c-221.6-15.2-341.8-25.3-356.3-29.7c-4.7-1.1-5.8-0.4-4,2.5c2.2,3.3-0.7,4-11.2,2.2
		c-40.6-6.5-670.9-75-966.4-105.4c-597.8-60.8-1016.4-95.6-1471.9-121.3c-192.3-10.9-183.6-9.8-193.4-23.2
		c-4.7-6.2-17.4-26.8-28.2-45.6c-16.3-28.6-25-39.1-50.3-60.8c-47.4-41.3-159.3-127.5-260.3-200.6
		c-167.3-120.9-204.6-147-207.1-144.8c-4.3,4.3-9.8,127.1-12.3,284.2l-2.5,155.3l-38.4-2.5c-21-1.1-54.7-3.6-74.6-5.4
		c-39.1-3.6-169.8-4.7-227.4-2.2c-23.9,1.1-37.7,3.3-41.6,6.9c-10.9,9.4-20.3,12.3-46,14.8c-32.2,3.3-72.8,17-105,35.5
		c-36.6,21-94.1,63.7-121.3,90.5c-25,24.3-53.6,46-69.2,52.5c-14.5,6.2-82.9,94.1-82.9,106.8c0,2.2-7.2,13.8-15.9,26.1
		c-8.7,11.9-28.2,47.4-43.8,78.2c-15.2,30.8-33.3,65.2-39.8,76c-6.5,10.9-13,23.9-14.5,29s-9.8,20.6-18.5,35.1
		c-8.7,14.1-15.9,27.2-15.9,29C18.1,6343.1,0.4,6369.5,0,6364.1z M2636,5795.6c-2.9-1.8-11.9-3.3-19.9-3.3
		c-14.1,0.4-14.1,0.7-3.6,3.3c6.2,1.4,14.8,2.9,19.9,3.3C2639.6,5798.9,2640.3,5798.5,2636,5795.6z"/>
	<path class="st0" d="M2997.7,6355.8c-48.9-18.1-80.7-62.3-80.7-111.2c0-48.5,22.4-84.4,65.5-105.7c20.6-10.1,27.9-11.9,51.4-11.9
		c17.7,0,33.3,2.2,43.8,6.2l16.7,6.5l-1.4,26.1c-1.8,36.6-1.8,36.9-17,26.8c-33.3-22.8-77.1-13.4-94.1,19.9
		c-7.2,13.4-6.9,48.2,0.4,63.4c9.1,18.8,24.6,28.2,50.3,29.7c17.4,1.1,25.7,0,36.9-6.2l14.8-7.2l-1.8,29.7
		c-1.1,16.3-3.3,31.1-5.1,32.9C3071.9,6360.5,3012.2,6361.2,2997.7,6355.8z"/>
	<path class="st0" d="M2614.3,6331.9c-39.1-12.7-62.3-47.1-55.8-82.9c5.8-31.1,16.7-40.9,57.9-51.4c14.8-3.6,31.1-9.4,36.2-12.3
		c10.5-7.2,11.2-19.9,1.8-31.5c-9.1-11.2-36.2-11.6-58.3-0.4c-8.7,4.3-16.3,7.2-16.7,6.9c-2.9-3.3-19.6-39.1-19.6-42
		c0-7.6,41.3-19.6,68.8-19.6c59-0.4,94.5,33.7,89.4,85.5c-2.9,30.8-22.4,48.5-64.5,58.7c-24.6,6.2-39.5,15.2-39.5,23.5
		c0,2.2,4,8,9.1,12.7c9.8,10.1,29,11.9,47.1,4l10.9-4.7l8,18.5c4.3,10.1,8,20.3,8.3,22.4C2697.9,6328.2,2633.5,6338.4,2614.3,6331.9
		z"/>
	<path class="st0" d="M2442.3,6315.2c-1.8-0.7-23.9-2.5-48.9-3.6l-45.3-2.5l6.5-99.9c3.3-55.4,7.2-105.7,8.3-112.6l1.8-11.9
		l33.3,2.2c18.5,1.4,46.3,3.3,62.3,4.3l29,2.2l-1.1,23.5l-1.4,23.5l-35.8-2.5l-35.8-2.5v21.7v21.7l30.4,1.1
		c16.7,0.7,31.5,2.5,32.6,3.6c1.1,1.1,1.1,11.6,0,23.5l-2.2,21.4h-33.3h-32.9l-1.1,19.2l-1.1,18.8h12.3c6.9,0,22.4,1.1,34.8,2.2
		l22.1,2.5v14.8c0,26.4-2.9,31.1-17.7,30.8C2451.7,6316.7,2444.5,6315.9,2442.3,6315.2z"/>
	<path class="st0" d="M2105.5,6292l-21.7-2.2l7.2-109.4c4.3-60.1,8.7-110.4,9.8-111.9c1.4-1.1,24.6-0.7,51.4,1.4
		c56.8,4.3,72.8,10.1,99.6,35.1c23.9,22.4,34.4,46.7,34.4,79.7c0,42.4-22.8,78.9-60.8,98.8c-16.3,8.3-23.2,9.4-58.3,10.1
		C2145.4,6294.2,2117.5,6293.5,2105.5,6292z M2196.1,6241c36.6-17.7,44.5-78.2,14.1-104.6c-12.3-11.2-32.2-18.5-48.9-18.5
		c-9.4,0-9.4,0.4-11.9,35.5c-1.1,19.2-3.3,48.5-4.7,65.2l-2.2,29.7h19.2C2173.6,6248.2,2187,6245.3,2196.1,6241z"/>
	<path class="st0" d="M1813.3,6271c-8-1.8-8-7.6-2.5-85.8c4.7-64.5,2.2-81.1-13.4-91.6c-14.1-9.1-39.5-7.6-50.3,2.5
		c-12.7,11.9-15.2,25-20.3,102.1l-4.3,67.3l-27.5-1.8c-15.2-1.1-27.9-2.5-28.2-2.5c-3.3-2.5,10.9-155.7,15.6-169.1
		c2.9-9.4,11.2-22.8,18.5-30.1c38-38,128.2-29.3,157.1,14.8c13,19.6,14.5,41.6,8.7,118.8c-2.9,39.8-5.4,73.5-5.4,75.3
		C1861.1,6273.6,1823.8,6273.9,1813.3,6271z"/>
	<path class="st0" d="M1474.1,6248.6l-15.9-2.2l-28.6-92.3c-15.6-50.7-31.1-102.1-34.8-114.1l-6.9-21.7l29.3,1.8l29.3,1.8l6.5,20.3
		l6.2,20.3l30.1,2.2c56.8,4.7,54.7,5.1,63.7-15.9l7.6-18.8l27.2,1.8c15.2,1.1,28.2,2.5,29.3,3.6c0.7,1.1-20.3,50-47.1,108.3
		l-48.5,106.5l-15.6,0.4C1497.2,6250.8,1482.7,6250,1474.1,6248.6z M1511.4,6145.4c7.2-17.7,12.3-33,11.2-34.4
		c-1.1-1.1-12.7-2.5-26.1-3.3l-23.9-1.8l2.5,10.5c9.8,40.6,18.1,66.6,20.3,64.1C1496.9,6179.1,1504.1,6163.1,1511.4,6145.4z"/>
	<path class="st0" d="M1283.6,6235.5c-1.8-0.7-23.9-2.5-48.9-3.6l-45.3-2.5l6.5-99.9c3.3-55.4,7.2-105.7,8.3-112.6l1.8-11.9
		l33.3,2.2c18.5,1.4,46.3,3.3,62.3,4.3l29,2.2l-1.1,23.5l-1.4,23.5l-35.8-2.5l-35.8-2.5v21.7v21.7l30.4,1.1
		c16.7,0.7,31.5,2.5,32.6,3.6c1.1,1.1,1.1,11.6,0,23.5l-2.2,21.4H1284H1251l-1.1,19.2l-1.1,18.8h12.3c6.9,0,22.4,1.1,34.8,2.2
		l22.1,2.5v14.8c0,26.4-2.9,31.1-17.7,30.8C1293,6237,1285.8,6236.3,1283.6,6235.5z"/>
	<path class="st0" d="M968.6,6212.4l-21.7-2.2l8-110.4c4-60.8,8-110.8,8-111.2c0.7-1.8,27.5-1.1,41.3,1.4l13.8,2.2l-2.5,42.7
		c-1.4,23.9-1.8,43.1-0.7,43.1c0.7,0,15.2-18.8,31.9-42l30.4-41.6l32.9,2.5c17.7,1.1,32.9,2.9,33.7,3.3c0.4,0.4-15.6,19.2-35.5,42
		c-19.9,22.4-36.2,42-36.2,43.1c0,1.1,6.2,5.1,13.8,9.1c23.9,13,36.6,51.8,25.7,80.4c-5.1,13.8-20.6,30.1-34.8,35.8
		C1064.5,6215.6,1012.8,6216.7,968.6,6212.4z M1047.9,6164.6c9.4-7.2,12.3-20.6,7.2-34c-3.3-7.6-20.3-16.3-33.3-16.3
		c-9.4,0-10.9,1.4-13,13.8c-1.1,7.2-2.2,20.3-2.2,29v15.2h15.9C1033,6172.2,1041.4,6169.6,1047.9,6164.6z"/>
	<path class="st0" d="M817.6,6202.2c-8-1.8-8-7.6-2.5-85.8c4.7-64.5,2.2-81.1-13.4-91.6c-14.1-9.1-39.5-7.6-50.3,2.5
		c-12.7,11.9-15.2,25-20.3,102.1l-4.3,67.3l-27.5-1.8c-15.2-1.1-27.9-2.5-28.2-2.5c-3.3-2.5,10.9-155.7,15.6-169.1
		c2.9-9.4,11.2-22.8,18.5-30.1c38-38,128.2-29.3,157.1,14.8c13,19.6,14.5,41.6,8.7,118.8c-2.9,39.8-5.4,73.5-5.4,75.3
		C865.4,6204.8,828.1,6205.1,817.6,6202.2z"/>
	<path class="st0" d="M450.8,6179.8l-21.7-2.2l7.2-109.4c4.3-60.1,8.7-110.4,9.8-111.9c1.4-1.1,26.8-0.4,56.1,1.8
		c46.3,3.6,56.1,5.4,73.5,14.1c24.3,11.9,34,27.2,33.7,51.4c-0.4,26.8-10.1,43.1-30.8,52.1c-17.7,8-17.7,8-10.5,14.5
		c23.9,21.7,14.1,75-15.9,87.6C539.5,6183,495.3,6184.1,450.8,6179.8z M528.6,6128c8-14.5-0.4-28.6-19.6-33
		c-17.4-4.3-20.3-0.7-20.3,25.7v19.2l17-1.1C520.3,6137.8,523.9,6136.3,528.6,6128z M544.2,6048.3c9.8-7.6,11.6-25.3,3.3-35.5
		c-5.4-6.9-11.2-8.7-29.3-10.1l-22.1-1.4v19.9c0,10.9-1.1,22.4-2.2,25.7c-1.8,5.1,1.4,5.8,21,5.8
		C527.9,6052.7,541,6050.5,544.2,6048.3z"/>
</g>
</svg>
